<?xml version="1.0" encoding="UTF-8"?>
<svg width="1624px" height="808px" viewBox="0 0 1624 808" version="1.1" xmlns="http://www.w3.org/2000/svg" xmlns:xlink="http://www.w3.org/1999/xlink">
    <title>Artboard</title>
    <g id="Artboard" stroke="none" stroke-width="1" fill="none" fill-rule="evenodd">
        <g id="person_icon" transform="translate(0.000000, 451.000000)">
            <circle id="Oval" stroke="#000000" stroke-width="20" cx="178.5" cy="178.5" r="168.5"></circle>
            <path d="M387.722646,32.3301746 C369.74926,10.435396 337.466873,9.28852667 317.995704,28.8800883 C298.524536,9.28852667 266.242148,10.435396 248.278182,32.3301746 C232.612699,51.4193886 235.429283,79.8446878 252.818629,97.3415542 L311.335755,156.220501 C315.01898,159.9265 320.981849,159.9265 324.655654,156.220501 L383.17278,97.3415542 C400.571545,79.8446878 403.388129,51.4193886 387.722646,32.3301746" id="Path" fill="#FFFFFF" fill-rule="nonzero"></path>
            <path d="M371.778117,39.84007 C357.399408,22.3546565 331.573498,21.4387539 315.996563,37.0847927 C300.419629,21.4387539 274.593719,22.3546565 260.222546,39.84007 C247.690159,55.0849284 249.943427,77.7856881 263.854903,91.7588801 L310.668604,138.780261 C313.615184,141.739913 318.385479,141.739913 321.324523,138.780261 L368.138224,91.7588801 C382.057236,77.7856881 384.310503,55.0849284 371.778117,39.84007" id="Path" fill="#000000" fill-rule="nonzero"></path>
            <path d="M128,54 C151.634,54.006 168.776,58.284 181.173,65.502 C193.58,72.681 200.811,82.955 204.219,93.065 C206.529,99.809 207.28,106.452 207.282,112.375 C207.269,118.74 206.416,124.295 205.521,128.4 C216.309,147.009 224.291,167.093 229.191,188.005 C229.831,189.14 230.31,190.39 230.577,191.74 C230.741,192.573 236.81,224.053 236.81,291.057 C236.81,297.961 231.212,303.559 224.31,303.559 C217.406,303.559 211.809,297.961 211.809,291.057 C211.809,257.168 210.222,232.829 208.712,217.338 C205.961,217.631 203.21,217.924 200.458,218.217 C197.051,235.962 188.928,262.052 170.342,296.934 C168.093,301.156 163.771,303.559 159.3,303.559 C157.317,303.559 155.305,303.086 153.432,302.088 C147.34,298.842 145.031,291.273 148.277,285.181 C165.685,252.481 172.89,228.96 175.818,213.96 C174.817,213.866 173.816,213.591 172.869,213.098 C162.266,207.574 154.825,201.264 150.011,194.338 C145.186,187.436 143.218,179.961 143.248,173.195 C143.283,163.278 147.045,155.005 150.555,149.145 C154.099,143.277 157.546,139.722 157.829,139.424 C158.652,138.577 159.619,137.959 160.652,137.556 C170.293,130.836 179.932,124.117 189.574,117.398 C190.051,117.059 190.57,116.811 191.113,116.634 C191.218,115.263 191.284,113.841 191.284,112.374 C191.284,105.511 189.946,98.005 185.874,91.424 C181.768,84.859 174.993,78.733 162.195,74.534 C153.675,71.768 142.482,69.997 128,70.002 C123.582,70.002 120,66.418 120,62 C120,57.581 123.582,54 128,54 Z M162.663,160.287 C160.719,164.165 159.216,168.745 159.245,173.194 C159.273,177.073 160.202,180.915 163.151,185.213 C165.716,188.91 169.976,192.982 176.862,197.025 C173.612,184.261 168.848,171.926 162.663,160.287 Z M155.162119,83.3458604 C167.270203,80.5642062 179.340722,88.124772 182.122376,100.232857 C184.90403,112.340942 177.343464,124.41146 165.23538,127.193114 C153.127295,129.974769 141.056776,122.414203 138.275122,110.306118 C135.493468,98.198033 143.054034,86.1275146 155.162119,83.3458604 Z" id="Combined-Shape" fill="#000000" fill-rule="nonzero"></path>
        </g>
        <g id="device_icon" transform="translate(1256.000000, 451.000000)">
            <circle id="Oval" stroke="#000000" stroke-width="20" cx="189.5" cy="178.5" r="168.5"></circle>
            <g id="noun_mobile-phone_506301" transform="translate(120.000000, 75.000000)" fill="#000000" fill-rule="nonzero">
                <path d="M114.0975,0 L26.1525,0 C12.1,0 0.67375,10.285 0.67375,22.92125 L0.67375,183.3425 C0.67375,195.97875 12.11375,206.25 26.1525,206.25 L114.0975,206.25 C128.15,206.25 139.57625,195.97875 139.57625,183.3425 L139.57625,22.92125 C139.57625,10.285 128.13625,0 114.0975,0 Z M123.67375,179.290769 C123.67375,184.09 118.662888,188 112.513789,188 L28.8337105,188 C22.6715283,188 17.67375,184.09 17.67375,179.290769 L17.67375,26.7223077 C17.67375,21.91 22.6846115,18 28.8337105,18 L112.513789,18 C118.662888,18 123.67375,21.91 123.67375,26.7223077 L123.67375,179.290769 Z" id="Shape"></path>
                <path d="M70.5,145 C61.4373662,145 54,152.313704 54,161.482334 C54,170.650964 61.4550321,178 70.5,178 C79.6332976,178 87,170.650964 87,161.482334 C87,152.349036 79.6332976,145 70.5,145 Z" id="Path"></path>
            </g>
            <path d="M0,92.8281582 L0,34.6980325 C5.48741847e-16,32.6045205 1.30424394,30.7326599 3.26816571,30.0075368 L53.8931657,11.3156722 C55.0108466,10.9029998 56.2391534,10.9029998 57.3568343,11.3156722 L107.981834,30.0075368 C109.945756,30.7326599 111.25,32.6045205 111.25,34.6980325 L111.25,92.8281582 L111.25,92.8281582 C111.25,110.084557 93.4084319,130.774839 57.7252956,154.899005 L57.7252939,154.899002 C56.4564757,155.756808 54.7935187,155.756808 53.5247005,154.899002 C17.8415668,130.774837 0,110.084556 0,92.8281582 Z" id="Path" fill="#FFFFFF" fill-rule="nonzero"></path>
            <path d="M11,89.2625266 L11,42.758426 C11,41.0836164 12.0433952,39.5861279 13.6145326,39.0060294 L54.1145326,24.0525377 C55.0086773,23.7223998 55.9913227,23.7223998 56.8854674,24.0525377 L97.3854674,39.0060294 C98.9566048,39.5861279 100,41.0836164 100,42.758426 L100,89.2625266 L100,89.2625266 C100,102.295452 87.2788451,117.776759 61.8365354,135.706448 L61.8365363,135.706449 C58.0365748,138.384356 52.9634282,138.384356 49.1634666,135.706449 C23.7211555,117.77676 11,102.295452 11,89.2625266 Z" id="Path" fill="#000000" fill-rule="nonzero"></path>
            <path d="M69.5270573,71.5929086 L68.16989,71.5929086 L68.16989,64.9578688 C68.16989,58.9260144 63.2438756,54 57.2120212,54 L53.190785,54 C47.1589306,54 42.2329162,58.9260144 42.2329162,64.9578688 L42.2329162,71.5426432 L40.875749,71.5426432 C38.1614145,71.5426432 36,73.7543231 36,76.4183921 L36,96.8261661 C36,99.5405006 38.2116799,101.701915 40.875749,101.701915 L69.5773227,101.701915 C72.2916572,101.701915 74.4530717,99.4902351 74.4530717,96.8261661 L74.4530717,76.4686576 C74.4530717,73.7543231 72.2413917,71.5929086 69.5270573,71.5929086 Z M48.8176906,64.9578688 C48.8176906,62.545127 50.7780432,60.5847744 53.190785,60.5847744 L57.2120212,60.5847744 C59.624763,60.5847744 61.5851157,62.545127 61.5851157,64.9578688 L61.5851157,71.5426432 L48.8176906,71.5426432 L48.8176906,64.9578688 Z" id="Shape" fill="#FFFFFF" fill-rule="nonzero"></path>
        </g>
        <rect id="Rectangle" stroke="#EEEEEE" stroke-width="3" x="629.5" y="2.5" width="369" height="369" rx="76"></rect>
        <circle id="Oval" fill="#CCCCCC" cx="547.5" cy="187.5" r="22.5"></circle>
        <circle id="Oval" fill="#CCCCCC" cx="1080.5" cy="187.5" r="22.5"></circle>
        <circle id="Oval" fill="#CCCCCC" cx="1176.5" cy="225.5" r="22.5"></circle>
        <circle id="Oval" fill="#CCCCCC" cx="1266.5" cy="271.5" r="22.5"></circle>
        <circle id="Oval" fill="#CCCCCC" cx="1354.5" cy="341.5" r="22.5"></circle>
        <circle id="Oval" fill="#CCCCCC" cx="448.5" cy="225.5" r="22.5"></circle>
        <circle id="Oval" fill="#CCCCCC" cx="267.5" cy="341.5" r="22.5"></circle>
        <circle id="Oval" fill="#CCCCCC" cx="356.5" cy="271.5" r="22.5"></circle>
    </g>
</svg>